# xmcd
#
# Track frame offsets:
#	150
#	12990
#	26655
#	40287
#	53795
#	67632
#	80270
#	94975
#	109222
#	122400
#	136972
#	150005
#	163522
#	177335
#	190370
#	204407
#	217142
#
# Disc length: 3267 seconds
# Revision: 8
# Processed by: cddbd v1.5.2PL0 Copyright (c) Steve Scherf et al.
# Submitted via: dBpowerAMP V12.0
#
DISCID=dc0cc111
DTITLE=Various Artist - The Bristol Sessions (1 of 2)
DYEAR=1991
DGENRE=Country
TTITLE0=Uncle Eck Dunford - Skip to Ma Lou, My Darling
TTITLE1=B. F. Shelton - O Molly Dear
TTITLE2=Blind Alfred Reed - Walking In The Way With Jesus
TTITLE3=Mr. and Mrs. J. W. Baker - The Newmarket Wreck
TTITLE4=Jimmie Rodgers - The Soldier's Sweetheart
TTITLE5=West Virginia Coon Hunters - Greasy String
TTITLE6=Ernest V. Stoneman and His Dixie Mountaineers - Are You Washed In The Blood
TTITLE7=Henry Whitter - Henry Whitter's Fox Chase
TTITLE8=The Carter Family - Bury Me Under The Weeping Willow
TTITLE9=Johnson Brothers - The Jealous Sweetheart
TTITLE10=Alfred G. Karnes - When They Ring The Golden Bells
TTITLE11=Dad Blackard's Moonshiners - Sandy River Belle
TTITLE12=Jimmie Rodgers - Sleep, Baby, Sleep
TTITLE13=Bull Mountain Moonshiners - Johnny Goodman
TTITLE14=Alcoa Quartet - I'm Redeemed
TTITLE15=The Carter Family - Little Log Cabin By The Sea
TTITLE16=Blue Ridge Corn Shuckers - Old Time Corn Shuckin', Pts. 1 and 2
EXTD=
EXTT0=
EXTT1=
EXTT2=
EXTT3=
EXTT4=
EXTT5=
EXTT6=
EXTT7=
EXTT8=
EXTT9=
EXTT10=
EXTT11=
EXTT12=
EXTT13=
EXTT14=
EXTT15=
EXTT16=
PLAYORDER=
